<?xml version="1.0" encoding="utf-8"?>
<!-- Generator: Adobe Illustrator 22.1.0, SVG Export Plug-In . SVG Version: 6.00 Build 0)  -->
<svg version="1.1" id="Layer_1" xmlns="http://www.w3.org/2000/svg" xmlns:xlink="http://www.w3.org/1999/xlink" x="0px" y="0px"
	 viewBox="0 0 792 576" style="enable-background:new 0 0 792 576;" xml:space="preserve">
<style type="text/css">
	.st0{fill:url(#SVGID_1_);}
	.st1{fill:url(#SVGID_2_);}
	.st2{fill:url(#SVGID_3_);}
	.st3{fill:url(#SVGID_4_);}
	.st4{fill:url(#SVGID_5_);}
	.st5{fill:url(#SVGID_6_);}
	.st6{fill:url(#SVGID_7_);}
	.st7{fill:url(#SVGID_8_);}
	.st8{fill:url(#SVGID_9_);}
	.st9{fill:url(#SVGID_10_);}
	.st10{fill:url(#SVGID_11_);}
	.st11{fill:url(#SVGID_12_);}
	.st12{fill:url(#SVGID_13_);}
	.st13{fill:url(#SVGID_14_);}
	.st14{fill:url(#SVGID_15_);}
	.st15{fill:url(#SVGID_16_);}
	.st16{fill:url(#SVGID_17_);}
	.st17{fill:url(#SVGID_18_);}
	.st18{fill:url(#SVGID_19_);}
	.st19{fill:url(#SVGID_20_);}
	.st20{fill:url(#SVGID_21_);}
	.st21{fill:url(#SVGID_22_);}
	.st22{fill:url(#SVGID_23_);}
	.st23{fill:url(#SVGID_24_);}
	.st24{fill:url(#SVGID_25_);}
</style>
<g>
	<linearGradient id="SVGID_1_" gradientUnits="userSpaceOnUse" x1="698.16" y1="569.0366" x2="151.4819" y2="-34.5361">
		<stop  offset="0" style="stop-color:#C8A458"/>
		<stop  offset="0.1353" style="stop-color:#AD8327"/>
		<stop  offset="0.372" style="stop-color:#EFC873"/>
		<stop  offset="0.7295" style="stop-color:#AD8327"/>
		<stop  offset="0.9324" style="stop-color:#AD8428"/>
	</linearGradient>
	<path class="st0" d="M746.3,40.1L507.1,77.6l9,55.6L389.3,111l-0.3-0.1l-13,7l-7.9,4.3l-84.5,45.6l-13.1,7.1v109.2l-224.6,0.3H32.5
		L32.4,419h0v13.8h60.3v-13.7H45.8V297.7h0L584,297v202.3h175.4L759.7,38L746.3,40.1z M375.9,283.9l-92.2,0.1V182.8l92.2-49.7V283.9
		z M584,283.7l-194.8,0.2v-158h0l0,0v0l130,22.8l13.9,2.4l50.8,8.9V283.7z M746.1,485.1l-148.6,0.2l-0.1-189.5V147.5l-13.3-2.4
		l-53.3-9.3l-0.8-0.1l-7.6-47l223.9-35.1L746.1,485.1z"/>
	
		<radialGradient id="SVGID_2_" cx="370.2426" cy="337.7451" r="0.1765" gradientTransform="matrix(2.163690e-02 0.9998 -2.5531 5.525459e-02 1224.5363 -51.0728)" gradientUnits="userSpaceOnUse">
		<stop  offset="0" style="stop-color:#31383D"/>
		<stop  offset="0.2392" style="stop-color:#2E3236"/>
		<stop  offset="1" style="stop-color:#231F20"/>
	</radialGradient>
	<polygon class="st1" points="370.4,337.6 370.4,337.9 370,337.8 	"/>
	
		<radialGradient id="SVGID_3_" cx="370.417" cy="367.8193" r="2.642738e-02" gradientTransform="matrix(2.163690e-02 0.9998 -2.5531 5.525459e-02 1301.4899 -22.8346)" gradientUnits="userSpaceOnUse">
		<stop  offset="0" style="stop-color:#31383D"/>
		<stop  offset="0.2392" style="stop-color:#2E3236"/>
		<stop  offset="1" style="stop-color:#231F20"/>
	</radialGradient>
	<polygon class="st2" points="370.4,367.8 370.4,367.8 370.4,367.8 	"/>
	
		<radialGradient id="SVGID_4_" cx="370.2426" cy="337.7451" r="0.1765" gradientTransform="matrix(2.163690e-02 0.9998 -2.5531 5.525459e-02 1224.5363 -51.0728)" gradientUnits="userSpaceOnUse">
		<stop  offset="0" style="stop-color:#31383D"/>
		<stop  offset="0.2392" style="stop-color:#2E3236"/>
		<stop  offset="1" style="stop-color:#231F20"/>
	</radialGradient>
	<polygon class="st3" points="370.4,337.6 370.4,337.9 370,337.8 	"/>
	
		<radialGradient id="SVGID_5_" cx="370.417" cy="367.8193" r="2.642738e-02" gradientTransform="matrix(2.163690e-02 0.9998 -2.5531 5.525459e-02 1301.4899 -22.8346)" gradientUnits="userSpaceOnUse">
		<stop  offset="0" style="stop-color:#31383D"/>
		<stop  offset="0.2392" style="stop-color:#2E3236"/>
		<stop  offset="1" style="stop-color:#231F20"/>
	</radialGradient>
	<polygon class="st4" points="370.4,367.8 370.4,367.8 370.4,367.8 	"/>
	<linearGradient id="SVGID_6_" gradientUnits="userSpaceOnUse" x1="593.3532" y1="379.9626" x2="340.1156" y2="-3.2929">
		<stop  offset="0" style="stop-color:#C8A458"/>
		<stop  offset="0" style="stop-color:#FFEA92"/>
		<stop  offset="0.2279" style="stop-color:#FFFAB8"/>
		<stop  offset="0.414" style="stop-color:#AB8124"/>
		<stop  offset="0.586" style="stop-color:#DAB25A"/>
		<stop  offset="0.7721" style="stop-color:#D5A84D"/>
		<stop  offset="1" style="stop-color:#EFC873"/>
	</linearGradient>
	<polygon class="st5" points="542.7,265.5 431.2,265.9 431.2,154.9 542.7,171.9 	"/>
	<g>
		<linearGradient id="SVGID_7_" gradientUnits="userSpaceOnUse" x1="184.2097" y1="705.663" x2="128.7128" y2="309.6834">
			<stop  offset="0" style="stop-color:#C8A458"/>
			<stop  offset="0.1353" style="stop-color:#AD8327"/>
			<stop  offset="0.372" style="stop-color:#EFC873"/>
			<stop  offset="0.7295" style="stop-color:#AD8327"/>
			<stop  offset="0.9324" style="stop-color:#AD8428"/>
		</linearGradient>
		<path class="st6" d="M156.3,356.3v44.9c0,16.8-7,24.2-18,24.2c-9.9,0-17.3-7.2-17.3-24.2v-44.9h-9.7v44.6
			c0,23.5,11.4,32.4,26.6,32.4c16.1,0,28-9.6,28-32.8v-44.2H156.3z"/>
		<linearGradient id="SVGID_8_" gradientUnits="userSpaceOnUse" x1="247.6935" y1="696.7653" x2="192.1965" y2="300.7856">
			<stop  offset="0" style="stop-color:#C8A458"/>
			<stop  offset="0.1353" style="stop-color:#AD8327"/>
			<stop  offset="0.372" style="stop-color:#EFC873"/>
			<stop  offset="0.7295" style="stop-color:#AD8327"/>
			<stop  offset="0.9324" style="stop-color:#AD8428"/>
		</linearGradient>
		<path class="st7" d="M211.2,393.8l22.5-37.3h-11l-10.1,18c-2.7,4.9-4.6,8.4-6.7,12.9h-0.3c-2-4.1-4.1-7.9-6.8-12.9l-9.8-18h-11.1
			l21.8,37.8L177,433.1h11l8.9-16.8c3.8-6.7,5.9-10.8,8-15.2h0.2c2.3,4.4,4.7,8.6,8.6,15.1l9.5,16.9h11.1L211.2,393.8z"/>
		<linearGradient id="SVGID_9_" gradientUnits="userSpaceOnUse" x1="309.204" y1="688.1438" x2="253.7072" y2="292.1649">
			<stop  offset="0" style="stop-color:#C8A458"/>
			<stop  offset="0.1353" style="stop-color:#AD8327"/>
			<stop  offset="0.372" style="stop-color:#EFC873"/>
			<stop  offset="0.7295" style="stop-color:#AD8327"/>
			<stop  offset="0.9324" style="stop-color:#AD8428"/>
		</linearGradient>
		<path class="st8" d="M276.4,425.1c-18,0-28.5-11.7-28.5-29.8c0-19.5,11.5-30.6,28.9-30.6c6.2,0,11.3,1.3,15,3.1l2.3-7.8
			c-2.5-1.3-8.4-3.3-17.6-3.3c-23,0-38.7,15.7-38.7,38.9c0,24.3,15.7,37.6,36.6,37.6c9,0,16.1-1.9,19.6-3.6l-2-7.6
			C288.2,423.9,282.2,425.1,276.4,425.1z"/>
		<linearGradient id="SVGID_10_" gradientUnits="userSpaceOnUse" x1="373.0068" y1="679.2014" x2="317.5099" y2="283.222">
			<stop  offset="0" style="stop-color:#C8A458"/>
			<stop  offset="0.1353" style="stop-color:#AD8327"/>
			<stop  offset="0.372" style="stop-color:#EFC873"/>
			<stop  offset="0.7295" style="stop-color:#AD8327"/>
			<stop  offset="0.9324" style="stop-color:#AD8428"/>
		</linearGradient>
		<path class="st9" d="M333.7,356.7c-19.8,0-34.4,15.4-34.4,38.9c0,22.4,13.7,37.6,33.3,37.6c18.9,0,34.4-13.5,34.4-39
			C367,372.2,353.9,356.7,333.7,356.7z M333.2,425.5c-15.1,0-23.6-14.2-23.6-30c0-16.3,7.9-30.9,23.8-30.9
			c15.9,0,23.6,15.4,23.6,30.1C356.9,411.5,348.3,425.5,333.2,425.5z"/>
		<linearGradient id="SVGID_11_" gradientUnits="userSpaceOnUse" x1="447.0596" y1="668.8232" x2="391.5627" y2="272.8445">
			<stop  offset="0" style="stop-color:#C8A458"/>
			<stop  offset="0.1353" style="stop-color:#AD8327"/>
			<stop  offset="0.372" style="stop-color:#EFC873"/>
			<stop  offset="0.7295" style="stop-color:#AD8327"/>
			<stop  offset="0.9324" style="stop-color:#AD8428"/>
		</linearGradient>
		<path class="st10" d="M424.3,356.1v45c0,16.8-7,24.2-18,24.2c-9.9,0-17.3-7.2-17.3-24.2v-45h-9.7v44.7c0,23.5,11.4,32.4,26.6,32.4
			c16.1,0,28-9.6,28-32.9v-44.3H424.3z"/>
		<linearGradient id="SVGID_12_" gradientUnits="userSpaceOnUse" x1="513.5724" y1="659.5021" x2="458.0754" y2="263.5218">
			<stop  offset="0" style="stop-color:#C8A458"/>
			<stop  offset="0.1353" style="stop-color:#AD8327"/>
			<stop  offset="0.372" style="stop-color:#EFC873"/>
			<stop  offset="0.7295" style="stop-color:#AD8327"/>
			<stop  offset="0.9324" style="stop-color:#AD8428"/>
		</linearGradient>
		<path class="st11" d="M484.8,425.1c-18,0-28.5-11.7-28.5-29.8c0-19.5,11.5-30.6,28.9-30.6c6.2,0,11.3,1.3,14.9,3.1l2.3-7.8
			c-2.5-1.3-8.4-3.3-17.6-3.3c-23,0-38.7,15.7-38.7,38.9c0,24.3,15.7,37.6,36.6,37.6c9,0,16.1-1.9,19.6-3.6l-2-7.6
			C496.6,423.9,490.6,425.1,484.8,425.1z"/>
		<linearGradient id="SVGID_13_" gradientUnits="userSpaceOnUse" x1="577.7765" y1="650.5038" x2="522.2795" y2="254.5241">
			<stop  offset="0" style="stop-color:#C8A458"/>
			<stop  offset="0.1353" style="stop-color:#AD8327"/>
			<stop  offset="0.372" style="stop-color:#EFC873"/>
			<stop  offset="0.7295" style="stop-color:#AD8327"/>
			<stop  offset="0.9324" style="stop-color:#AD8428"/>
		</linearGradient>
		<path class="st12" d="M559.8,356.5v32H524v-32h-9.6v76.5h9.6v-35.9h35.8v35.9h9.7v-76.5H559.8z"/>
	</g>
	
		<linearGradient id="SVGID_14_" gradientUnits="userSpaceOnUse" x1="-664.8347" y1="337.2814" x2="-843.7073" y2="66.5715" gradientTransform="matrix(-1 0 0 1 -406.2032 0)">
		<stop  offset="0" style="stop-color:#C8A458"/>
		<stop  offset="0" style="stop-color:#FFEA92"/>
		<stop  offset="0.2279" style="stop-color:#FFFAB8"/>
		<stop  offset="0.414" style="stop-color:#AB8124"/>
		<stop  offset="0.586" style="stop-color:#DAB25A"/>
		<stop  offset="0.7721" style="stop-color:#D5A84D"/>
		<stop  offset="1" style="stop-color:#EFC873"/>
	</linearGradient>
	<polygon class="st13" points="306.2,264.2 353.6,265.9 353.6,165.4 306.2,192.9 	"/>
	<g>
		<linearGradient id="SVGID_15_" gradientUnits="userSpaceOnUse" x1="132.8506" y1="906.058" x2="132.8506" y2="217.2228">
			<stop  offset="0" style="stop-color:#C8A458"/>
			<stop  offset="0.1353" style="stop-color:#AD8327"/>
			<stop  offset="0.372" style="stop-color:#EFC873"/>
			<stop  offset="0.7295" style="stop-color:#AD8327"/>
			<stop  offset="0.9324" style="stop-color:#AD8428"/>
		</linearGradient>
		<path class="st14" d="M114.8,449.5v5.3h14.8v43.5h6.4v-43.5h14.9v-5.3H114.8z"/>
		<linearGradient id="SVGID_16_" gradientUnits="userSpaceOnUse" x1="199.4677" y1="906.0582" x2="199.4677" y2="217.2254">
			<stop  offset="0" style="stop-color:#C8A458"/>
			<stop  offset="0.1353" style="stop-color:#AD8327"/>
			<stop  offset="0.372" style="stop-color:#EFC873"/>
			<stop  offset="0.7295" style="stop-color:#AD8327"/>
			<stop  offset="0.9324" style="stop-color:#AD8428"/>
		</linearGradient>
		<path class="st15" d="M202.1,462.5c-2.4,0-4.6,0.7-6.5,1.8c-1.9,1.1-3.5,2.7-4.5,4.5h-0.1v-21.9h-6.4v51.4h6.4v-21.2
			c0-1.2,0.1-2.2,0.4-3c1.2-3.5,4.4-6.4,8.6-6.4c6,0,8.1,4.8,8.1,10.4v20.1h6.4v-20.9C214.4,465.4,206.9,462.5,202.1,462.5z"/>
		<linearGradient id="SVGID_17_" gradientUnits="userSpaceOnUse" x1="262.8994" y1="906.0581" x2="262.8994" y2="217.2246">
			<stop  offset="0" style="stop-color:#C8A458"/>
			<stop  offset="0.1353" style="stop-color:#AD8327"/>
			<stop  offset="0.372" style="stop-color:#EFC873"/>
			<stop  offset="0.7295" style="stop-color:#AD8327"/>
			<stop  offset="0.9324" style="stop-color:#AD8428"/>
		</linearGradient>
		<path class="st16" d="M276.3,489.9v-13.1c0-7-2.6-14.4-13.3-14.4c-4.4,0-8.6,1.3-11.5,3.1l1.5,4.2c2.5-1.6,5.9-2.6,9.1-2.6
			c7.2,0,8,5.2,8,8.1v0.7c-13.5-0.1-21.1,4.6-21.1,13.1c0,5.1,3.6,10.1,10.7,10.1c5,0,8.8-2.5,10.7-5.2h0.2l0.5,4.4h5.8
			C276.5,495.9,276.3,493,276.3,489.9z M270.2,486.5c0,0.7-0.2,1.4-0.4,2c-1,3-3.9,5.9-8.5,5.9c-3.3,0-6-2-6-6.1
			c0-6.8,7.9-8.1,14.9-7.9V486.5z"/>
		<linearGradient id="SVGID_18_" gradientUnits="userSpaceOnUse" x1="318.7275" y1="906.0566" x2="318.7275" y2="217.2251">
			<stop  offset="0" style="stop-color:#C8A458"/>
			<stop  offset="0.1353" style="stop-color:#AD8327"/>
			<stop  offset="0.372" style="stop-color:#EFC873"/>
			<stop  offset="0.7295" style="stop-color:#AD8327"/>
			<stop  offset="0.9324" style="stop-color:#AD8428"/>
		</linearGradient>
		<path class="st17" d="M315.5,463.3v35.1h6.4v-35.1H315.5z"/>
		<linearGradient id="SVGID_19_" gradientUnits="userSpaceOnUse" x1="366.1" y1="906.0582" x2="366.1" y2="217.2254">
			<stop  offset="0" style="stop-color:#C8A458"/>
			<stop  offset="0.1353" style="stop-color:#AD8327"/>
			<stop  offset="0.372" style="stop-color:#EFC873"/>
			<stop  offset="0.7295" style="stop-color:#AD8327"/>
			<stop  offset="0.9324" style="stop-color:#AD8428"/>
		</linearGradient>
		<path class="st18" d="M362.9,446.9v51.4h6.4v-51.4H362.9z"/>
		<linearGradient id="SVGID_20_" gradientUnits="userSpaceOnUse" x1="418.1718" y1="906.0581" x2="418.1718" y2="217.2246">
			<stop  offset="0" style="stop-color:#C8A458"/>
			<stop  offset="0.1353" style="stop-color:#AD8327"/>
			<stop  offset="0.372" style="stop-color:#EFC873"/>
			<stop  offset="0.7295" style="stop-color:#AD8327"/>
			<stop  offset="0.9324" style="stop-color:#AD8428"/>
		</linearGradient>
		<path class="st19" d="M431.6,489.9v-13.1c0-7-2.6-14.4-13.3-14.4c-4.4,0-8.6,1.3-11.5,3.1l1.5,4.2c2.5-1.6,5.8-2.6,9.1-2.6
			c7.2,0,8,5.2,8,8.1v0.7c-13.6-0.1-21.1,4.6-21.1,13.1c0,5.1,3.6,10.1,10.7,10.1c5,0,8.8-2.5,10.7-5.2h0.2l0.5,4.4h5.8
			C431.7,495.9,431.6,493,431.6,489.9z M425.4,486.5c0,0.7-0.2,1.4-0.4,2c-1,3-3.9,5.9-8.5,5.9c-3.3,0-6-2-6-6.1
			c0-6.8,7.9-8.1,14.9-7.9V486.5z"/>
		<linearGradient id="SVGID_21_" gradientUnits="userSpaceOnUse" x1="486.0732" y1="906.0563" x2="486.0732" y2="217.2239">
			<stop  offset="0" style="stop-color:#C8A458"/>
			<stop  offset="0.1353" style="stop-color:#AD8327"/>
			<stop  offset="0.372" style="stop-color:#EFC873"/>
			<stop  offset="0.7295" style="stop-color:#AD8327"/>
			<stop  offset="0.9324" style="stop-color:#AD8428"/>
		</linearGradient>
		<path class="st20" d="M488.8,462.5c-5.8,0-9.9,3.3-11.6,6.6H477l-0.4-5.8H471c0.2,2.9,0.3,5.9,0.3,9.5v25.6h6.4v-21.1
			c0-1.1,0.1-2.2,0.4-3c1.1-3.5,4.3-6.5,8.6-6.5c6,0,8.1,4.7,8.1,10.4v20.2h6.4v-20.9C501.2,465.4,493.6,462.5,488.8,462.5z"/>
		<linearGradient id="SVGID_22_" gradientUnits="userSpaceOnUse" x1="553.0319" y1="906.059" x2="553.0319" y2="217.227">
			<stop  offset="0" style="stop-color:#C8A458"/>
			<stop  offset="0.1353" style="stop-color:#AD8327"/>
			<stop  offset="0.372" style="stop-color:#EFC873"/>
			<stop  offset="0.7295" style="stop-color:#AD8327"/>
			<stop  offset="0.9324" style="stop-color:#AD8428"/>
		</linearGradient>
		<path class="st21" d="M569.3,489.3v-42.4h-6.4v20.9h-0.2c-1.6-2.8-5.2-5.4-10.6-5.4c-8.5,0-15.8,7.2-15.7,18.9
			c0,10.6,6.5,17.8,15,17.8c5.7,0,10-3,12-6.9h0.1l0.3,6.1h5.7C569.4,495.9,569.3,492.4,569.3,489.3z M562.9,483.6
			c0,1-0.1,1.9-0.3,2.8c-1.2,4.8-5.1,7.6-9.3,7.6c-6.9,0-10.4-5.9-10.4-13c0-7.8,3.9-13.5,10.5-13.5c4.8,0,8.3,3.3,9.2,7.4
			c0.2,0.8,0.3,1.9,0.3,2.7V483.6z"/>
	</g>
	<g>
		<linearGradient id="SVGID_23_" gradientUnits="userSpaceOnUse" x1="315.3203" y1="406.2938" x2="315.3203" y2="501.0843">
			<stop  offset="0" style="stop-color:#C8A458"/>
			<stop  offset="0" style="stop-color:#FFEA92"/>
			<stop  offset="0.2279" style="stop-color:#FFFAB8"/>
			<stop  offset="0.414" style="stop-color:#AB8124"/>
			<stop  offset="0.586" style="stop-color:#DAB25A"/>
			<stop  offset="0.7721" style="stop-color:#D5A84D"/>
			<stop  offset="1" style="stop-color:#EFC873"/>
		</linearGradient>
		<polygon class="st22" points="313.7,449.7 314.2,450.4 315,448.6 316.4,452.5 317,451.7 314.9,446.2 		"/>
		<linearGradient id="SVGID_24_" gradientUnits="userSpaceOnUse" x1="322.498" y1="406.2938" x2="322.498" y2="501.0843">
			<stop  offset="0" style="stop-color:#C8A458"/>
			<stop  offset="0" style="stop-color:#FFEA92"/>
			<stop  offset="0.2279" style="stop-color:#FFFAB8"/>
			<stop  offset="0.414" style="stop-color:#AB8124"/>
			<stop  offset="0.586" style="stop-color:#DAB25A"/>
			<stop  offset="0.7721" style="stop-color:#D5A84D"/>
			<stop  offset="1" style="stop-color:#EFC873"/>
		</linearGradient>
		<polygon class="st23" points="324.1,449.7 323.6,450.4 322.9,448.6 321.4,452.5 320.9,451.7 322.9,446.2 		"/>
		<linearGradient id="SVGID_25_" gradientUnits="userSpaceOnUse" x1="318.916" y1="406.2893" x2="318.916" y2="501.089">
			<stop  offset="0" style="stop-color:#C8A458"/>
			<stop  offset="0" style="stop-color:#FFEA92"/>
			<stop  offset="0.2279" style="stop-color:#FFFAB8"/>
			<stop  offset="0.414" style="stop-color:#AB8124"/>
			<stop  offset="0.586" style="stop-color:#DAB25A"/>
			<stop  offset="0.7721" style="stop-color:#D5A84D"/>
			<stop  offset="1" style="stop-color:#EFC873"/>
		</linearGradient>
		<polygon class="st24" points="311.1,447.2 313.9,456.5 323.9,456.5 326.8,447.2 322,452.9 318.9,444.2 315.8,452.9 		"/>
	</g>
</g>
</svg>
